<svg xmlns="http://www.w3.org/2000/svg" xmlns:xlink="http://www.w3.org/1999/xlink" width="960" height="1126" viewBox="0 0 960 1126">
  <defs>
    <clipPath id="clip-path">
      <rect id="Rectangle_20" data-name="Rectangle 20" width="960" height="1126" transform="translate(7353 3501)" fill="#fff" stroke="#707070" stroke-width="1"/>
    </clipPath>
    <clipPath id="clip-path-2">
      <rect id="Background" width="1920" height="1126" transform="translate(0 0.363)" fill="#f6ddda"/>
    </clipPath>
  </defs>
  <g id="Mask_Group_10" data-name="Mask Group 10" transform="translate(-7353 -3501)" clip-path="url(#clip-path)">
    <g id="Mask_Group_9" data-name="Mask Group 9" transform="translate(7353 3500.637)" clip-path="url(#clip-path-2)">
      <g id="Whangaehu" transform="translate(-250.955 -703.007)" opacity="0.2">
        <path id="Shape" d="M1663.437,839.261c.15-30.62,59.9-65.051,85.424-82.806,50.467-35.112,102.954-67.535,154.955-100.477s104.143-65.794,153.73-101.961c32.2-23.476,70.028-49.917,91.864-83.439,46.517-71.438-100.146-60.83-138.137-62.392-96.647-3.992-207.5-2.168-298.089-39.371-54.079-22.208-75.644-59.455-64.029-113.738,3.745-17.654,14.826-37.969,5.438-55.168-10.024-18.368-33.085-28.969-52.225-36.077-69.812-25.9-150.079-28.9-223.944-32.147-79.65-3.573-160.047-2.527-239.135-2.8-33.535-.116-68.558-11.608-100.493-20.95-41.865-12.243-83.23-25.995-124.752-39.291C822.7,39.457,728.58,8.72,631.95,1.311,571.432-3.333,505.287,2.945,458.276,43.334c-23.6,20.274-35.959,50.427-49.605,77.206-16.52,32.352-32.383,65.018-49.97,96.862C302.048,319.96,221.164,420.179,89.878,425.216c-19.861.759-39.366-1.714-59.133-2.179-12.589-.286-23.791,2.616-28.472,15.179C-9.491,469.728,27.488,519.476,42.65,544.48c33.2,54.731,70.636,107.01,105.7,160.638,23.2,35.469,63.363,83.94,63.785,127.035.375,38.4-53.162,66.152-82.307,85.064-27.311,17.708-76.795,42.488-79.79,78.511-1.451,17.466,10.623,31.941,23.231,43.176,22.1,19.646,47.555,33.5,67.434,55.918,32.6,36.772,59.835,87.368,55.408,136.92-3.07,34.335-23.6,56.82-49.727,78.314-10.978,9.037-19.889,15.43-20.469,30.1-.936,23.3,8.63,47.953,16.507,69.554,28.191,77.3,68.23,152.056,112.776,221.852,22.257,34.88,46.3,69.652,75.811,99.406,19.331,19.537,45.4,42.791,74.874,42.764,34.134,0,70.252-11.752,103.431-20.539,61.976-16.421,123.2-35.405,184.173-54.882q211.523-67.59,419.07-146.127c97.459-36.943,196.989-73.942,288.618-123.056a324.145,324.145,0,0,0,50.372-33.585c16.707-13.335,37.438-19.3,58.459-23.744,130.471-27.6,273.41-6.412,404.423,6.876,33.254,3.366,66.508,6.751,99.856,9.107,28.669,2.027,62.99,7.841,90.853-.893,54.9-17.19,6.907-80.547-13.383-106.359-71.439-90.9-163.613-167.8-249.046-246.31-40.62-37.39-81.549-74.68-119.961-114.185C1702.745,899.5,1663.307,866.1,1663.437,839.261Z" transform="translate(2625.905 2322.337) rotate(180)" fill="rgba(0,0,0,0)" stroke="#c1c8d8" stroke-miterlimit="10" stroke-width="2"/>
        <path id="Shape-2" data-name="Shape" d="M1566.7,772.307c21.9-32.4,60.317-56.349,92.208-78.887,45.893-32.445,93.229-63.088,139.851-94.614,44.086-29.815,88.264-59.964,129.09-93.819,24.894-20.645,56.13-45.334,67.921-75.87,25.578-66.186-112.025-56.144-145.995-57.875-84.452-4.285-180.193-5.266-258.329-40.115-48.787-21.761-68.83-57.848-58.425-107.949,3.6-17.334,10.078-32.133,1.873-49.377-9.488-19.958-31.31-32.4-51.315-41.184-62.667-27.518-136.741-33.365-204.672-38.23-70.178-5.025-143.294-8.565-211.219-4.892-27.161,1.464-58.425-6.846-85.311-13.22-41.36-9.818-82.3-21.142-123.458-31.678C775.283,23.176,689.473,2.54,602.465.191c-62.816-1.7-128.313,7.5-180.574,43.032-52.963,36.033-76.463,91.892-105.841,144.991-50.726,91.8-119.237,203.419-236.591,222.815-17.795,2.946-34.9,1.348-52.673,2.071-9.141.366-19.547,1.526-24.182,10.122-12.035,22.315,20.946,63.115,32.044,80.207,30.663,47.235,65.14,92.156,97.274,138.484,25.524,36.783,57.871,77.655,67.744,121.257,11.98,52.909-66.291,90.561-93.818,127.818-47.718,64.6,42.69,101.415,87.262,132.218,51.186,35.364,93.434,99.88,47.551,154.595-17.552,20.925-39.15,33.393-46.989,60.7-12.26,42.7-2.988,91.5,6.959,133.709,14.981,63.453,38.7,126.221,70.937,183.569,23.1,41.058,61.413,105.441,117.523,100.613,37.773-3.222,76.172-15,112.953-25.4,55.071-15.576,109.448-33.329,163.537-51.77,124.87-42.446,248.35-89.253,369.4-140.737,82.6-35.141,313-178.751,330.337-183.873,51.69-15.263,110.461-12.576,163.754-10.211,70.884,3.144,141.424,11.282,211.9,18.825,33.549,3.57,67.266,7.935,100.986,9.694,24,1.25,55.53,2.321,76.556-10.987,41.041-25.965-4.683-85.376-23.593-110.51-57.928-77.057-131.207-143.787-199.914-212.015-33.718-33.5-67.949-66.943-98.557-103.129C1584.113,821.659,1553.168,792.319,1566.7,772.307Z" transform="translate(2553.788 2260.545) rotate(180)" fill="rgba(0,0,0,0)" stroke="#c1c8d8" stroke-miterlimit="10" stroke-width="2"/>
        <path id="Shape-3" data-name="Shape" d="M1487.772,718.853c59.8-64.835,137.447-113.718,208.683-167.868,35.754-27.187,58.659-65.33,89.5-97.709,16.041-16.838,36.067-38.133,39.163-61.606,8.259-62.793-115.764-54.3-152.885-56.686-71.769-4.625-152.848-8.132-217.958-40.177-39.781-19.589-59.371-51.74-51.936-94,3.3-18.75,8.428-34.678,0-53.087-8.541-18.648-26.333-31.811-44.35-41.678-51.776-28.374-116.12-37.446-174.414-44.2a1475.118,1475.118,0,0,0-206.141-9.2C917.123,54.151,857.106,37.178,798.223,25.99,720.217,11.178,640.8-1.758,560.973.2,497.93,1.75,434.393,13.955,380.5,46.392c-54.764,33.035-87.69,82.48-117.375,135.835-44.875,80.664-100.8,188.745-199.248,219.379-14.318,4.464-27.663,4.955-42.431,5.732-7.173.375-16.435.491-19.993,7.625-8.563,17.18,23.08,50.483,31.91,62.084,28.187,37.058,58.74,72.44,87.633,109,26.969,34.133,56.347,69.7,73.1,109.7,26.661,63.7-58.574,100.952-56.18,161.653,1.488,37.687,39.33,64.712,69.3,83.409,36.9,22.99,90.027,38.106,108.487,80.06,13.757,31.25-7.829,49.439-24.45,73.149-28.168,40.178-30.088,94.64-27.157,141.148,3.952,62.846,19.394,126.622,45.679,184.387,11.9,26.191,26.491,53.427,47.968,73.769,20.129,19.062,39.176,23.947,66.071,20.045,82.332-11.964,165.461-45.312,244.419-75.1,99.2-37.427,197.029-78.748,291.939-125.238,64.718-31.705,130.9-65.248,187.7-109.05,14.805-11.42,29.963-23.83,40.792-38.892,8.184-11.321,11.652-20.669,25.453-27.133,40.885-19.151,97.756-14.142,141.563-12.152,70.052,3.169,139.755,11.607,209.372,19.205,40.623,4.464,117.15,18.508,149.589-15.178,28-29.089-5.787-78.685-23.047-104.31-43.657-64.8-99.816-121.675-151.921-180.236-23.88-26.838-30.724-43.012-50.451-72.849-2.353-3.552-5.367-7.644-8.2-12.177-2.917-4.662-5.555-9.826-6.294-14.751C1473.172,734.927,1480.43,726.848,1487.772,718.853Z" transform="translate(2487.186 2212.838) rotate(180)" fill="rgba(0,0,0,0)" stroke="#c1c8d8" stroke-miterlimit="10" stroke-width="2"/>
        <path id="Shape-4" data-name="Shape" d="M1373.107,650.433c55.259-57.329,121.832-104.426,181.155-158.075,26.6-24.054,53.46-49.286,73.728-78.63,10.9-15.779,22.472-35.643,19.472-55.256-8.626-56.292-110.631-51.208-151.841-54.5-61.232-4.84-131.58-9.719-185.727-40.076-35.469-19.881-48.769-49.242-42.146-87.109,7.109-40.619-8.785-70.106-44.957-92.766-45.349-28.387-102.595-39.958-155.249-48.178A1117.754,1117.754,0,0,0,875.6,22.789c-62.5,1.144-123.05-8.846-185.135-15.341C608.148-1.157,523.19-5.4,441.8,12.236,370.938,27.6,306.932,61.442,258.95,113.785c-50.117,54.63-74.928,123.458-115.622,183.9-25.385,37.7-60.776,87.565-108.2,102.219-15.814,4.888-44.647-1.706-32.013,22.334,7.222,13.751,20.737,25.814,31.414,37.054,17.252,18.166,35.076,35.83,52.618,53.746,37.388,38.19,77.427,77.194,105.451,122.412,35.309,56.935-17.177,100.754-10.78,158.484C185.256,825,207.9,849.792,231.861,869.27c15.5,12.617,32.46,23.544,49.78,33.739,18.078,10.654,39.482,18.77,55.251,32.539,22.472,19.595,12.719,42.791,8.5,68.122a522.83,522.83,0,0,0-4.855,134.636c5.133,55.031,17.168,111.636,42.521,161.646,9.863,19.47,22.357,40.115,40.91,53.165s37.745,12.16,59,8.229c63.061-11.616,125.991-38.645,185.811-64.262,74.871-32.068,148.271-67.907,218.366-108.679,48.384-28.146,96.928-58.553,137.407-96.71,11.773-11.106,22.974-23,32.031-36.277,6.219-9.107,9.553-20.854,18.563-27.7,28.191-21.364,84.789-14.985,117.851-13.742,65.983,2.475,130.926,14.243,196.825,17.1,35.965,1.563,92.291,5.495,118.7-23.714,24.839-27.458,2.342-70.7-12.5-97.161-29.175-52.021-68.371-98.368-103.5-146.725-14.442-19.9-30.271-40.718-39.627-63.44C1344.588,679.787,1358.947,665.132,1373.107,650.433Z" transform="translate(2395.629 2140.194) rotate(180)" fill="rgba(0,0,0,0)" stroke="#c1c8d8" stroke-miterlimit="10" stroke-width="2"/>
        <path id="Shape-5" data-name="Shape" d="M1279.069,600.418c43.984-50.447,97.009-95.229,141.311-146.5,25.932-30.023,70.59-80.5,50.536-122.826-22-46.512-98.693-47.779-143.024-51.527-52.762-4.461-114.719-10.556-159.878-39.6-14.281-9.181-26.446-21.334-31.6-37.341-5.521-17.13.515-32.12,1.3-49.27,1.647-35.975-20.869-64.856-50.666-84.692-42.113-28.042-94.773-41.3-144.512-50.545A921.042,921.042,0,0,0,771.5,2.775c-54.858.179-109.137-.981-164.052-2.32C535.628-1.33,462.8,1.552,393.138,19.745,324.514,37.678,262.122,71.289,213.112,120.728,165.3,168.975,133.042,227.94,104.789,288c-16.031,34.092-43.115,85.04-81.352,102.26-17.012,7.668-33.7,7.141-15.618,27.074,22.769,25.1,53.454,45.237,79.827,66.7,38.042,30.979,77.038,62.565,108.969,99.4,20.391,23.519,29.479,46.343,28.075,76.8-1.086,23.2-6.008,46.155-3.519,69.444,5.826,54.658,50.966,92.141,90.869,127.046,25.67,22.449,49.113,39.573,62.327,71.5,15.628,37.742,22.195,78.8,32.633,117.99,11.473,43.033,24.725,87.8,49.767,125.7,22.293,33.744,49.411,48.876,89.981,39.78,63.291-14.169,125.677-49.073,181.857-81.363,57.189-32.851,113.4-69.79,160.786-114.947,25.586-24.384,43.048-53.017,65.771-79.213,28.576-32.888,93.237-20.433,131.663-17.648,63.786,4.622,264.495,39.205,245.975-72.807-7.731-46.754-38.172-89.9-60.436-131.159-9.227-17.122-22.582-37.67-24.668-57.291C1245.425,635.9,1265.845,615.607,1279.069,600.418Z" transform="translate(2315.181 2089.241) rotate(180)" fill="rgba(0,0,0,0)" stroke="#c1c8d8" stroke-miterlimit="10" stroke-width="2"/>
        <path id="Shape-6" data-name="Shape" d="M1190.647,567.836c33.613-45.715,73.838-88.9,102.678-138.28,18.71-31.977,37.083-74.7,12.946-108.535-27.241-38.181-87.308-47.081-131.445-51.947-45.474-5.008-99.76-9.222-136.927-38.172-11.824-9.221-21.572-21.657-23.388-36.547-1.749-14.283,3.19-28.566,1.554-43.109-3.668-32.655-24.425-59.561-51.186-79.075C885.71,14.439,767.877,1.6,672.354.093,624.541-.657,575.335,3.281,527.213,6.1,464.77,9.761,402.23,17.617,342.68,36.551,216.062,76.794,131.2,166.047,71.923,277.108,53.267,312.067,38.995,349.89,9.76,377.984c-15.07,14.506-11.777,24.924,3.63,38.154,24.088,20.675,53.472,36.475,80.209,53.731,38.028,24.541,76.868,49.447,110.5,78.844,23.181,20.265,39.637,39.79,44.632,70.175,3.564,21.665,2.731,43.743,4.874,65.543,4.078,41.416,18.046,82.512,42.77,116.864,19.645,27.227,43.033,51.973,67.205,75.568a577.51,577.51,0,0,1,81.863,98.385c31.637,48.261,76.092,137.28,150.612,113.722,82.191-26,159.228-92.048,211.959-156.044,17.708-21.488,32.246-47.84,56.129-63.686,35.754-23.683,72.033-22.853,114.559-22.755,63.671.134,202.214,13.319,203.711-77.665.589-36.047-15.762-70.131-23.593-104.8C1149.992,625.183,1167.691,598.991,1190.647,567.836Z" transform="translate(2249.983 2052.375) rotate(180)" fill="rgba(0,0,0,0)" stroke="#c1c8d8" stroke-miterlimit="10" stroke-width="2"/>
        <path id="Shape-7" data-name="Shape" d="M1112.9,536.133c33.246-59.582,107.805-157.488,51.1-223.743-29.952-35.019-82.929-48.173-127.371-56.014-35.764-6.342-78.9-8.725-105.917-35.611C910.848,201,919.665,172.227,912.055,147.48c-9.444-30.683-31.122-55.782-57.76-74.649C779.856,20.1,676.352,3.918,586.805.475c-93-3.568-195.474,13.119-282.99,45.228C194.695,85.749,112.945,161.576,55.774,257.6c-10.542,17.725-20.133,35.915-30.261,53.855-6.8,12.034-16.894,23.676-22.258,36.335-8.929,21.107,1.591,38.36,18.458,52.115,24.262,19.8,54.063,33.9,81.722,48.762,37.824,20.34,76.49,40.314,111.674,64.177C238.751,528.9,263.5,546.2,271.961,574.061c5.775,19,6.973,39.126,6.767,58.805-.45,42.2,1.873,76.317,22.521,114.962,33.977,63.445,86.225,120.494,141.42,167.961,43.318,37.253,111.861,95.123,174.976,70.216,56.628-22.3,89.75-75.684,127.064-118.842,18.14-20.981,38.516-40.143,62.458-55.068,30.186-18.814,58.6-26.709,94.368-29.787,60.195-5.183,150.958-6.53,169.565-75.4,6.871-25.416,2.948-51.741,6.552-77.486C1082.36,595.376,1096.128,566.188,1112.9,536.133Z" transform="translate(2197.271 2016.597) rotate(180)" fill="rgba(0,0,0,0)" stroke="#c1c8d8" stroke-miterlimit="10" stroke-width="2"/>
        <path id="Shape-8" data-name="Shape" d="M1029.781,503.646c23.675-65.195,54.776-147.357-2.4-205.3-27.7-28.07-66.656-43.761-104.355-55.488-27.005-8.4-69.883-10.878-86.44-36.714-12.16-19.014-13.844-45.243-24.844-65.614C797.261,113.866,775.047,90.2,746.852,71.4,676.867,24.344,585.712,6.159,502.585.953c-180.624-11.3-364.408,78.68-461.063,226.715C12.7,271.795-24.5,318.762,22.075,363.842c50.848,49.181,127.447,72.222,188.134,107.169,23.188,13.342,52.737,29.382,65.674,53.54,7.782,14.522,8.316,32.743,8.671,48.726.935,40.715,4.48,77.331,21.64,115.322,26.509,58.711,68.78,112.875,116.68,157.244C464.648,884.531,524.223,930,584.895,902.106c46.517-21.433,76.017-66.927,112.162-100.462,40.228-37.348,89.966-62.516,144.593-74.809,53.14-11.926,111.424-19.978,139.43-70.669,9.606-17.388,19.644-39.9,23.245-59.148a571.477,571.477,0,0,1,25.452-93.371Z" transform="translate(2148.722 1981.903) rotate(180)" fill="rgba(0,0,0,0)" stroke="#c1c8d8" stroke-miterlimit="10" stroke-width="2"/>
        <path id="Shape-9" data-name="Shape" d="M946.842,469.412c10.959-65.832,12.17-134.478-38.717-186.363-23.75-24.206-53.771-41.4-84.129-56.984-22.333-11.464-45.4-21.134-62.084-39.93-15.456-17.4-27.2-37.608-42.125-55.466C700.85,107.652,677.3,87.166,650.036,70,583.571,28.666,502.719,9.335,425.368,2.629,387.923-.63,347.3-2.327,310.112,6.558,274.193,15.13,238.673,28.684,205.65,44.487,135.443,78.052,74.6,127.2,30.485,189.349c-30.24,42.626-46.6,84.074-7.432,127.317C67.208,365.409,136.445,392.3,193.51,423.937c39.139,21.7,83.005,42.965,90.317,89.074,5.826,36.689,10.549,71.511,25.613,106.191a413.673,413.673,0,0,0,96.925,136.263c38,35.323,86.067,65.3,140.417,46.431,43.062-14.974,76.472-48.52,114.094-72.5,41.929-26.786,87.995-41.555,136.505-53.43,43.594-10.715,84.643-27.18,112.821-62.136a168.214,168.214,0,0,0,16.27-22.911c5.674-10.191,5.232-20.3,6.346-31.733C935.721,529.02,941.884,499.207,946.842,469.412Z" transform="translate(2104.329 1947.21) rotate(180)" fill="rgba(0,0,0,0)" stroke="#c1c8d8" stroke-miterlimit="10" stroke-width="2"/>
        <path id="Shape-10" data-name="Shape" d="M861.339,432.589c-.936-62.531-16.7-121.628-59.884-170.359-18.46-20.847-40.505-38.017-60.819-57.121-16.356-15.4-31.813-29.707-50.621-42.4C645.4,132.66,609.144,93.776,561.733,67.017,498.444,31.244,425.946,11.47,354.012,3.564,318.886-.3,282.6-1.65,247.062,2.714c-30.518,3.747-59.752,16.9-86.868,30.357C107.048,59.438,55.446,96.91,20.937,144.318c-76.08,104.516,73.919,180.51,150.907,225.011,35.406,20.471,89.507,44.18,104.011,84.728,10.368,28.967,16.683,58.426,30.035,86.5,35.865,75.39,108.67,164.062,205.7,152.258,41.509-5.044,79.346-25.533,118.1-39.288C669.6,639.361,710.784,631.464,752.26,622.8c38.766-8.093,69.662-19.612,94.7-50.493,11.967-14.745,10.91-32.4,11.977-50.493C860.684,492.093,861.76,462.2,861.339,432.589Z" transform="translate(2061.328 1915.764) rotate(180)" fill="rgba(0,0,0,0)" stroke="#c1c8d8" stroke-miterlimit="10" stroke-width="2"/>
        <path id="Shape-11" data-name="Shape" d="M776.861,392.054c-15.583-94.385-73.475-197.427-158.6-252.241C518.139,75.334,409.667,21.034,290.038,5.429,234.575-1.809,173.818-5.37,121.485,18.3c-39.83,18-86.094,44.91-108.014,82.749C-40.158,193.6,79.125,267.283,147.085,310.1c36.588,23.052,83.162,45.514,110.739,79.178,16,19.515,24.167,45.337,37.084,66.772,39.146,64.96,103.584,117.355,183.851,126.726,37.112,4.328,74.491-1.027,111.33-5.283,37.7-4.355,75.878-6.722,113.344-12.793,29.91-4.855,65.158-13.074,76.175-43.605C793.5,482.619,783.222,430.6,776.861,392.054Z" transform="translate(2015.552 1883.242) rotate(180)" fill="rgba(0,0,0,0)" stroke="#c1c8d8" stroke-miterlimit="10" stroke-width="2"/>
        <path id="Shape-12" data-name="Shape" d="M695.9,348.7c-22.733-88.738-70.87-175.3-151.795-228.271-42.913-28.09-92.729-47.481-140.559-66.64C349.335,32.078,292.687,15.224,234.842,6.863,162.809-3.551,46.145-12.938,8.511,65.349c-37.354,77.707,57.037,146.482,112.856,185.675,35.789,25.108,74.087,48.151,108.279,75.6,18.541,14.881,32.823,32.075,48.513,49.527,43.364,48.355,105.185,86.639,168.2,107.075,61.064,19.811,136.615,28.583,201.081,22.035,27.815-2.819,47.7-12.308,56.109-39.3C715.2,428.437,705.3,385.359,695.9,348.7Z" transform="translate(1972.544 1855.053) rotate(180)" fill="rgba(0,0,0,0)" stroke="#c1c8d8" stroke-miterlimit="10" stroke-width="2"/>
        <path id="Shape-13" data-name="Shape" d="M608.262,303.118c-22.583-78.13-71.286-149.488-142.342-196.384C386.275,54.167,283.722,24.957,189.457,10.1c-50.1-7.89-158.679-29.281-184.216,31.94S53.536,163.6,96.028,196.81C147.6,237.058,203.2,275.919,258.742,312.03c48.241,31.4,99.733,63.5,152,87.746A570.585,570.585,0,0,0,502.5,433.335c23.378,6.3,53.1,15.69,77.615,11C641.927,432.5,619.062,340.475,608.262,303.118Z" transform="translate(1922.615 1833.369) rotate(180)" fill="rgba(0,0,0,0)" stroke="#c1c8d8" stroke-miterlimit="10" stroke-width="2"/>
        <path id="Shape-14" data-name="Shape" d="M514.548,255.87C465,108.117,308.01,35.454,156.856,10.12,121.732,4.24,23.272-16.958,3.635,28.177c-19.031,43.762,41.482,95.66,69.809,120.25,87.778,76.191,196.223,132.683,298.99,188.649,32.077,17.47,89.929,55.378,129.722,37.892C545.352,355.941,524.813,286.509,514.548,255.87Z" transform="translate(1875.45 1809.518) rotate(180)" fill="rgba(0,0,0,0)" stroke="#c1c8d8" stroke-miterlimit="10" stroke-width="2"/>
        <path id="Shape-15" data-name="Shape" d="M409.693,200.332C366.6,91.522,241.269,29.116,126.037,8.538,97.814,3.5,26.132-12.17,4.756,18.195c-19.782,28.088,27.427,68.788,45.083,84.961,39.321,36.014,85.92,65.681,131.956,94.2,42.565,26.384,85.588,53.428,130.38,75.741,23.59,11.746,67.832,36.808,94.642,18.672C435.684,272.261,419.26,224.493,409.693,200.332Z" transform="translate(1821.349 1782.417) rotate(180)" fill="rgba(0,0,0,0)" stroke="#c1c8d8" stroke-miterlimit="10" stroke-width="2"/>
        <path id="Shape-16" data-name="Shape" d="M287.18,139.265C254.336,68.208,166.373,22.066,88.78,6.732,67.9,2.612,22.774-8.065,5.161,10.911c-16.215,17.476,9.918,43.1,21.516,54.929,51.406,52.446,126.681,99.294,195.651,128.067,17.34,7.234,48.513,21.432,66.352,6.83C306.981,185.746,294.724,155.583,287.18,139.265Z" transform="translate(1754.765 1753.14) rotate(180)" fill="rgba(0,0,0,0)" stroke="#c1c8d8" stroke-miterlimit="10" stroke-width="2"/>
        <path id="Shape-17" data-name="Shape" d="M152.94,72.559C134.434,37.275,86.063,10.655,46,2.175,17.8-3.788-16.1,1.364,8.478,32.077,32.892,62.565,78.19,90.4,116.582,102.74,145.873,112.152,168.832,102.867,152.94,72.559Z" transform="translate(1679.858 1716.283) rotate(180)" fill="rgba(0,0,0,0)" stroke="#c1c8d8" stroke-miterlimit="10" stroke-width="2"/>
        <path id="Shape-18" data-name="Shape" d="M894.925,554.372c1.187-69.714,40.02-142.156,20.842-213.185-15.749-58.336-95.032-63.208-142.6-89.636-37.8-21-59.246-58.193-79.686-93.881-18.365-32.04-34.861-65.044-54.208-96.558C626.75,40.739,605.243.734,578.084.011c-26-.7-49.844,30.479-64.947,48.908-19.7,24.021-37.151,49.63-56.273,74.035C424.639,164.12,385.98,194.59,341.7,223.428Q266.127,272.65,188.059,318.5c-38.319,22.576-76.9,44.983-113.734,69.789C51.227,403.861.235,433.061,0,461.757c-.112,13.692,13.486,28.856,22.655,39.8,15.514,18.527,33.2,35.465,50.937,52.041,33.038,30.871,67.479,60.343,101.54,90.171,44.223,38.709,86.458,76.784,125.328,120.737C340.65,810,379.043,856.988,418.223,903.335c26.534,31.4,53.04,66.658,91.311,85.925,47.936,24.083,87.283-1.311,135.762-1.606,41.7-.259,38.627-92.454,43.927-118.09,5.318-25.948,17.039-50.1,21.58-76.11,5.664-32.468,5.739-65.686,7.131-98.5,1.691-40.139,2.358-78.352,47.329-93.659,25.59-8.7,53.267-10.525,79.762-15.735C862.185,582.175,894.552,576.4,894.925,554.372Z" transform="translate(921.079 1953.713) rotate(180)" fill="rgba(0,0,0,0)" stroke="#c1c8d8" stroke-miterlimit="10" stroke-width="2"/>
        <path id="Shape-19" data-name="Shape" d="M828.647,519.2c4.371-58.438,30.2-133.223,5.775-193.541-20.864-51.546-86.115-58.228-130.052-85.3-36.272-22.334-52.418-58.88-70.548-94.783-14.546-28.8-28.652-57.88-45.163-85.76C576.49,39.268,557.909,4.58,532.608.327c-22.75-3.824-47.139,26.8-59.906,42.38-18.627,22.744-34.558,47.445-51.014,71.627-28.913,42.477-58.526,80.677-100.835,111.881-42.505,31.333-89.007,54.77-136.006,79.159C148.08,324.456,111.5,344.092,76.566,366.122c-26.025,16.4-63.438,37.394-75.344,66.642C-8.21,455.9,39.6,494.3,53.7,507.848c29.017,27.864,59.766,54.02,90.571,80.013,37.553,31.678,76.305,59.38,109.47,95.517,59.317,64.6,108.9,145.06,185.223,193.08,46.033,28.959,97.263,36.365,148.464,32.032,20.275-1.715,25.142-29.025,27.7-44.953,4.25-26.461,4.783-53.377,8.046-79.945,3.062-24.87,9.856-48.5,15.332-72.887,5.542-24.71,7.1-50.027,11.176-74.906,2.527-15.445,5.027-33.42,16.081-45.837,11.439-12.855,30.308-18.242,46.8-22.334C743.535,560.02,825.559,560.439,828.647,519.2Z" transform="translate(875.303 1930.945) rotate(180)" fill="rgba(0,0,0,0)" stroke="#c1c8d8" stroke-miterlimit="10" stroke-width="2"/>
        <path id="Shape-20" data-name="Shape" d="M732.892,465.47c7.352-53.637,17.643-120.443-12.305-169.86C696.106,255.2,643.9,246.487,606.6,220.158c-31.017-21.894-42.733-56.715-58.122-89.074-12.633-26.542-25.332-53.2-40.644-78.458C496.227,33.472,481.261,7.5,458.2.819c-19.713-5.709-41.984,19.869-52.912,32.6-18.609,21.7-33.78,46.009-48.848,70-24.649,39.255-47.33,81.188-82.412,113.118-34.088,30.985-74.582,49.274-115.835,69.839-31.6,15.755-63,32.118-92.769,50.907-22.861,14.42-51.186,31.5-63.1,55.493-10.3,20.69,16.145,45.179,29.359,59.776,21.82,24.089,46.039,46.187,69.913,68.376,25.772,23.937,54.317,46.019,79.256,70.544,52.445,51.607,94.342,108.755,158.98,148.3,41.859,25.613,98.19,48.881,147.675,44.7,35.586-3.015,33.246-78.154,36.664-102.162,5.619-39.255,16.473-80.5,33.708-116.659,14.807-30.985,49.991-40.54,82.356-47.487,20.275-4.363,41.525-6.722,61.135-13.462C724.081,496.874,729.811,487.953,732.892,465.47Z" transform="translate(805.935 1901.673) rotate(180)" fill="rgba(0,0,0,0)" stroke="#c1c8d8" stroke-miterlimit="10" stroke-width="2"/>
        <path id="Shape-21" data-name="Shape" d="M623.671,403.465c4.377-45.347,3.393-98.972-24.961-138.2-24.848-34.359-69.088-43.406-100.553-70.473-24.553-21.117-34.2-55.549-47.408-83.474C434.61,77.175,411.992,14.11,371.276,1.261c-37.87-11.946-77.486,64.362-91.2,87.116-21.708,36.015-39.863,75.511-66.191,108.769-22.673,28.633-53.051,44.462-85.294,61.474-41.11,21.725-103.524,47.488-125.5,89.827C-13.3,380,39.986,426.9,58.172,448.761c19.028,22.835,33.359,49.9,52.99,71.932,30.986,34.762,81.2,62.751,122.655,84.109,40.311,20.775,92.649,43.77,138.37,42.4,30.05-.895,35.767-45.169,42.178-66.8,9.186-30.744,21.4-58.295,47.634-79.206,26.7-21.287,58.178-31.317,91.264-40.1,16.983-4.473,36.358-7.963,51.551-17C621.6,434.272,621.986,420.9,623.671,403.465Z" transform="translate(721.327 1864.809) rotate(180)" fill="rgba(0,0,0,0)" stroke="#c1c8d8" stroke-miterlimit="10" stroke-width="2"/>
        <path id="Shape-22" data-name="Shape" d="M511.835,333.959c-.243-39.177-9.632-80.953-37.473-111.173-23.188-25.172-59.484-33.585-81.682-59.317C375.1,143.1,366.148,114.5,354.377,90.84c-14.4-28.991-34.754-79.636-70.555-89.7C248.88-8.652,217.975,47.131,204.578,69.2c-19.619,32.365-35.5,66.672-55.3,98.949-15.508,25.322-34.474,41.644-59.727,57.964-29.644,19.17-71,40.406-86.837,72.121C-8.7,321.2,18.935,357.894,28.968,378.124c6.726,13.587,12.884,27.388,16.266,42.115,2.636,11.469,2.9,22.082,10.529,31.929,19.214,24.767,61.349,28,89.937,36.167,37.968,10.835,78.254,23.15,117.988,25.5,24.421,1.469,36.885-20,50.823-35.1,16.471-17.852,39.789-30.691,60.157-44.163,26.879-17.808,56.13-28.884,86.391-40.223,13.65-5.12,29.685-10.142,40.257-20.319C512.358,363.476,511.918,348.1,511.835,333.959Z" transform="translate(639.479 1821.442) rotate(180)" fill="rgba(0,0,0,0)" stroke="#c1c8d8" stroke-miterlimit="10" stroke-width="2"/>
        <path id="Shape-23" data-name="Shape" d="M416.529,268.419c-4.826-32.9-19.864-64.351-45.265-87.611-19.472-17.858-45.33-27.913-60.956-49.369-14.565-20-24.708-42.743-36.735-64.128C260.845,44.7,241.935,6.915,212.58.763c-31.638-6.626-56.01,31.492-69.505,52.619-17.048,26.7-30,55.422-45.245,83.039a234.529,234.529,0,0,1-43.456,55.85C36.2,209.6,11.56,226.207,2.366,250.033c-8.127,21.108,7.075,46.645,9.764,68.048C15,340.948,9.971,364.967,25.887,384.6c32.822,40.493,115.2,32.984,162.3,33.851,46.47.893,83.832-23.885,121.437-47.457,24.839-15.564,50.706-28.742,76.173-43.243C411.759,312.956,420.774,297.375,416.529,268.419Z" transform="translate(575.67 1779.159) rotate(180)" fill="rgba(0,0,0,0)" stroke="#c1c8d8" stroke-miterlimit="10" stroke-width="2"/>
        <path id="Shape-24" data-name="Shape" d="M348.427,208.387c-14.271-47.668-58.842-73-90.7-109.025C231.653,69.871,212.1,8.8,168.2.72,118.349-8.45,88.508,72.471,71.177,103.695c-19.23,34.629-53.479,62.8-67.721,99.455-7.491,19.24-1.057,37.194,2.928,56.426,4.37,21.127,7.653,42.712,22.738,59.71,29.694,33.45,87.677,33.216,129.446,34.137,43.232.956,81.478-21.966,115.924-44.843C311.025,284.352,363.044,257.274,348.427,208.387Z" transform="translate(536.833 1737.965) rotate(180)" fill="rgba(0,0,0,0)" stroke="#c1c8d8" stroke-miterlimit="10" stroke-width="2"/>
        <path id="Shape-25" data-name="Shape" d="M291.234,156.429c-16.08-33.961-49.871-61.571-77.291-87.635C191.054,47.064,166.436,3.323,131.545.2,90.532-3.471,65.677,43.235,49.54,71.88c-15.883,28.138-38.769,57.854-47.563,88.741C-7.194,192.8,17.229,236.135,40.519,258.9,66.5,284.289,109,293.669,145.465,292.657c38.183-1.03,73.219-22.009,102.137-43.777C278.518,225.614,309.934,195.854,291.234,156.429Z" transform="translate(503.541 1698.928) rotate(180)" fill="rgba(0,0,0,0)" stroke="#c1c8d8" stroke-miterlimit="10" stroke-width="2"/>
        <path id="Shape-26" data-name="Shape" d="M234.373,118.595c-15.36-28.246-41.985-52.142-66.535-73.456C148.892,28.684,120.936.7,93.6.018,63.534-.741,38.05,22.747,26.1,46.82,14.314,70.564,1.9,100.334.136,126.383c-3.834,56.725,74.155,120.272,132.717,115.1C188.374,236.571,265,174.881,234.373,118.595Z" transform="translate(468.859 1667.488) rotate(180)" fill="rgba(0,0,0,0)" stroke="#c1c8d8" stroke-miterlimit="10" stroke-width="2"/>
        <path id="Shape-27" data-name="Shape" d="M183.347,90.544C162.157,53.74,110.686,1.271,63.035.026,8.34-1.4-5.392,56.988,1.738,99.3c7.242,43.184,70.3,105.692,120.585,97.247C171.4,188.306,208.46,134.191,183.347,90.544Z" transform="translate(438.344 1642.551) rotate(180)" fill="rgba(0,0,0,0)" stroke="#c1c8d8" stroke-miterlimit="10" stroke-width="2"/>
        <path id="Shape-28" data-name="Shape" d="M138.11,70.5C120.17,39.686,81.885,1.2,41.955.028-5.625-1.35-4.725,47.95,6.063,78.627c11.219,31.855,60.63,86.266,102.29,77.676C148.862,147.916,155.3,100.035,138.11,70.5Z" transform="translate(414.764 1628.459) rotate(180)" fill="rgba(0,0,0,0)" stroke="#c1c8d8" stroke-miterlimit="10" stroke-width="2"/>
        <path id="Shape-29" data-name="Shape" d="M95.665,50.689C83.823,28.7,54.189.911,26.008.021-8.431-1.048-1.735,38.052,7.162,56.922c10.577,22.455,46.029,61.472,75.779,55.15C112.233,105.847,105.436,68.806,95.665,50.689Z" transform="translate(391.181 1612.193) rotate(180)" fill="rgba(0,0,0,0)" stroke="#c1c8d8" stroke-miterlimit="10" stroke-width="2"/>
        <path id="Shape-30" data-name="Shape" d="M412.078,631.549c76.227,44.115,162.4,80.53,243.661,117.543C774.492,803.169,894.993,855.8,1019.772,896.084c66.9,21.6,153.587,52.73,225.369,35.812,26.245-6.18,50.179-24.887,73.71-37.039,32.448-16.757,65.374-32.685,98.243-48.648,65.935-32,132.076-63.675,196.879-97.725,31.2-16.4,61.482-37.057,93.967-51.048,18.985-8.182,41.7-4.354,61.987-3.837,46.989,1.2,93.949,3.489,140.908,5.434,57.44,2.373,115.01,4.9,172.515,3.962,25.94-.434,89.457,3.962,103.735-17.347,7.682-11.475-10.423-32.167-18.815-41.741-15.41-17.6-33.121-33.452-50.6-49.147-40.419-36.3-83.348-70.866-119.277-111.413-18.46-20.844-42.647-46.31-30.6-74.766,12.164-28.741,33.234-53.627,46.09-82.27,14.8-32.959,20.946-67.261,27.929-102.212,5.174-25.832,17.226-48.719,28.556-72.532,12.519-26.323,25.486-52.868,34.18-80.628C2110.3,52.6,2119.569,19.614,2099.471,8c-28.556-16.508-82.1-3.144-114.655,1.722-44.986,6.71-89.644,15.258-134.509,22.619-32.569,5.354-65.252,11.225-98.365,11.85-53.378,1.008-106.935-2.481-160.173-5.729C1493.188,32.453,1395.315,24.3,1296.4,24.3c-86.658,0-286.916,95.626-333.792,112.465-93.564,33.61-189.619,65.477-278.159,110.2-23.952,12.108-60.817,28.241-73.42,53.163-7.775,15.356-4.2,24.235-22.54,34.13-25.019,13.5-57.075,18.8-84.77,24.842-44.6,9.726-89.551,17.962-134.359,26.769C278.74,403.63,188.729,423.725,98.483,443.06,71.2,448.9,38.19,450.2,12.179,460.5c-16.767,6.614-15.027,14.937-2.049,24.984C32.9,503.112,64.8,512.9,91.7,522.956c39.4,14.732,79.446,27.876,119.51,40.832S291.54,589.3,331.624,602.277C358.091,610.833,388.284,617.781,412.078,631.549Z" transform="translate(2327.658 936.742) rotate(180)" fill="rgba(0,0,0,0)" stroke="#c1c8d8" stroke-miterlimit="10" stroke-width="2"/>
        <path id="Shape-31" data-name="Shape" d="M300.042,584.983c80.633,44.2,170.137,79.42,256.423,113.778,110.43,44,223.359,85.238,339.717,112.742,68.312,16.138,148.922,33.956,218.723,15.45,24.9-6.6,43.507-21.445,64.854-34.546,24.332-14.95,49.6-28.648,74.868-42.132q78.021-41.633,157.69-80.421c28.132-13.752,59.093-32.169,90.88-36.94,25.269-3.795,53.97,1.7,79.346,3.3,45.707,2.878,91.4,5.844,137.13,8.364,52.764,2.9,105.676,5.585,158.553,5.121,29.47-.259,80.062,4.021,100.9-14.145,18.183-15.852-48.018-73.183-59.661-84.076-36.358-34.009-74.6-66.393-108.437-102.761-20-21.445-44.35-47.529-52.782-75.954-7.177-24.225,6.672-51.824,14.852-74.221,10.229-28.049,18.483-57.126,30.368-84.585,10.584-24.466,27.43-46.26,42.225-68.5,16.274-24.466,32.755-49.331,44.836-76.025,7.4-16.423,19.653-43.928,4.941-59.583-17-18.05-69.383-6.255-90.918-3.686-43.686,5.29-87.034,13.153-130.42,20.2-72.06,11.688-140.761,21.91-214.141,19.462-95.559-3.2-191.025-10.723-286.566-14.887-35.281-1.555-71.124-4.683-106.435-2.993-20.243.976-35.65,6.872-47.429,20.177-16.077,18.157-53.109,28.21-78.865,38.629-40.157,16.236-80.82,31.333-121.377,46.635-89.019,33.6-179.749,65.982-264.172,109.436-26.708,13.743-57.29,29.068-77.049,51.773-11.024,12.662-8.245,24.859-14.973,38.316-8.91,17.7-38.2,25.7-55.711,31.481-33.794,11.188-68.973,18.685-103.879,25.708-78.985,15.888-158.159,26.334-238.426,34.027-18.81,1.787-92.883,7.98-53.98,37.825,43,32.99,105.063,49.144,155.664,67.736C212.381,546.389,258,561.936,300.042,584.983Z" transform="translate(2152.894 899.879) rotate(180)" fill="rgba(0,0,0,0)" stroke="#c1c8d8" stroke-miterlimit="10" stroke-width="2"/>
        <path id="Shape-32" data-name="Shape" d="M211.706,520.427c75.792,38.89,159.753,67.9,241.381,95.658,99.053,33.679,200.584,63.7,304.483,80.519,65.257,10.554,137.207,18.664,202.028,1.123,44.266-11.973,78.513-44.344,117.388-66.61s79.333-43.172,121-60.6c25.857-10.813,53.672-21.707,82.443-20.274,69.955,3.462,139.826,11.709,209.856,15.721,46.331,2.677,92.749,4.879,139.216,4.22,28.021-.392,66.517,1.213,91.325-12.848,27.421-15.551-118.587-148.323-132.387-163.267-34.6-37.471-76.494-87.2-69.8-140.491,6.4-50.943,34.124-88.976,65.495-128.892,17.8-22.706,74.883-83.365,53.729-112.895-12.085-16.88-51.92-11.036-70.845-9.886-37.3,2.266-74.387,7.137-111.486,11.367-54.1,6.129-109.678,15.595-164.006,18.369-37.831,1.927-75.885-.651-113.781-.7-54.338-.072-108.675.325-163.013.785-45.625.392-91.633,0-137.1,4.175-28.265,2.569-49.719,8.342-69.992,24.65C789.99,74.736,763.38,83.042,740.889,92.063c-37.137,14.89-74.761,28.692-112.263,42.717C550.112,164.15,470.69,192.9,395.536,229.609c-34.307,16.746-91.99,40.192-100.037,80.8-2.9,14.637-5.041,20.966-20.029,29.289-21.276,11.818-46.759,17.139-70.629,21.77-55.649,10.8-112.915,9.181-168.466,19.85-22.625,4.4-52.157,13.891-26.335,35.624,30.139,25.418,74.012,39.39,110.117,55.091,18.025,7.833,36.593,15.167,53.71,24.732C187.01,504.126,198.262,513.578,211.706,520.427Z" transform="translate(1953.124 843.498) rotate(180)" fill="rgba(0,0,0,0)" stroke="#c1c8d8" stroke-miterlimit="10" stroke-width="2"/>
        <path id="Shape-33" data-name="Shape" d="M147.179,449.743C217.2,481.33,293.247,504.3,367.928,525c82.952,22.965,167.9,41.987,253.973,50.081,59.435,5.607,122.764,7.264,180.444-9.9,36.482-10.857,61.212-33.688,92.6-52.835,47.377-28.939,98.636-51.87,155.553-46.29q95.714,9.363,192.061,14.049c38.744,1.886,77.637,3.3,116.426,1.985,24.525-.823,56.122-2.208,77.458-12.806,28.548-14.192-78.684-122.188-92.051-137.928-33.153-39.031-57.451-79.995-71.65-128.359-11.58-39.465,12.075-70.489,36.482-100.01,15.172-18.334,64.2-64.443,48.845-88.253-8.419-13.129-36.162-12.449-51.062-13.119-28.4-1.27-56.918.053-85.311.635-41.933.894-86.569-5.25-128.146-.3C1001.409,12.9,909.5,22.373,816.784,29.876c-51.109,4.132-102.527,7.887-153.178,15.856-18.184,2.862-36.967,5.894-54.2,12.368-11.085,4.159-17.127,11.241-26.481,17.054-44.6,27.67-102.817,41.907-153.046,59.641-66.777,23.574-133.909,46.781-198.907,74.629-34.188,14.648-81.939,31.479-105.463,61.376-7.109,9.032-4.078,16.263-8.549,24.942-5.145,10.016-20.774,13-30.867,15.793C63.19,317.877-32.7,327.465,11.492,364.662c21.085,17.716,47.947,29.082,71.716,43.007,8.6,5.044,17,10.114,24.17,16.92C119.37,436,131.193,442.508,147.179,449.743Z" transform="translate(1745.046 784.957) rotate(180)" fill="rgba(0,0,0,0)" stroke="#c1c8d8" stroke-miterlimit="10" stroke-width="2"/>
        <path id="Shape-34" data-name="Shape" d="M140.62,399.2c138.232,51.108,300.235,85.923,450.944,79.179,50.117-2.252,104.037-9.765,147.485-35.477,25.617-15.187,46.09-32.333,76.859-37.819,22.214-3.957,46.134.536,68.479,2.162q48.548,3.537,97.161,6.173c40.182,2.082,80.5,3.686,120.753,2.832,28.766-.617,68.489.08,93.477-14.66,29.834-17.582-46.105-100.062-56.791-114.758-25.9-35.623-44.054-70.133-50.614-113.062-1.931-12.507-8.435-25.328-7.592-37.935.881-12.874,9.2-24.337,16.871-34.459,10.039-13.267,44.869-44.733,34.9-60.913-5.511-8.934-26.2-10.06-36.921-11.954-20.114-3.578-40.519-5.495-60.758-8.335C1000.535,15.333,966.445-.435,931.991.009,839.339,1.189,745.346,28.6,654.55,43.652,600.571,52.631,546.226,60.782,492.9,72.938c-16.872,3.851-34.249,7.835-50.286,14.366-11.192,4.554-18.38,12.677-28.748,17.781-39.751,19.592-85.463,31.484-128.148,44.669-55.413,17.153-111.013,33.789-166.044,52.05C85.185,213.248,40.833,223.317,11.11,244.544c-21.708,15.5-6.871,20.138,4.578,34.575,5.848,7.362,4.5,14.616,7.038,22.951,3.633,11.9,13.891,20.472,23.507,28.177C59.5,340.888,77.167,349.654,88.009,362.7c3.824,4.593,3.645,10.292,6.739,14.3C103.746,388.646,127.622,394.4,140.62,399.2Z" transform="translate(1585.533 748.095) rotate(180)" fill="rgba(0,0,0,0)" stroke="#c1c8d8" stroke-miterlimit="10" stroke-width="2"/>
        <path id="Shape-35" data-name="Shape" d="M198.808,340.878C311,373.007,435.832,391.3,554.423,382.812c41.261-2.958,82.775-9.83,121.21-24.926,17.487-6.846,30.613-14.478,49.776-14.889,44.461-.948,89.056,2.368,133.515,3.164,31.812.572,63.782.777,95.519-1.662,21.224-1.626,49.916-3.578,67.3-15.989,25.262-18.08-20.34-79.541-29.622-96.521-15.382-28.161-30.642-59.468-24.542-92.048,1.871-9.965,5.184-18.768,5.614-28.929.416-8.732-.739-16.793,2.508-25.14,4.014-10.35,21.866-26.409,15.728-35.937-4.182-6.505-16.589-6.81-24.841-8.89A258.5,258.5,0,0,1,927.515,27.8c-13.286-5.756-24.6-14.647-38.361-19.407C866.812.689,841.8-.035,818.318,0c-93.7.143-188.595,17.781-279.923,36.212-47.558,9.6-95.379,19.832-141.6,34.391-14.034,4.423-29.941,8.865-42.281,17.034-7.7,5.085-12.921,11.458-21.669,15.287-74.729,32.656-161.125,44.784-240.457,68.369C71.74,177.433-42.7,208.454,17.137,237.634c36.344,17.731,74.757,25.793,107.921,50.048,10.105,7.372,16.842,13.478,20.789,24.729,2.6,7.49-3.658,3.686,5.08,11.52C161.532,333.336,185.741,337.134,198.808,340.878Z" transform="translate(1496.751 707.975) rotate(180)" fill="rgba(0,0,0,0)" stroke="#c1c8d8" stroke-miterlimit="10" stroke-width="2"/>
        <path id="Shape-36" data-name="Shape" d="M205.878,279.6c131.351,26.225,270.451,27.472,403.876,4.229,33.635-5.855,68.64-4.455,102.688-5.944,33.081-1.426,91.9,1.542,115.927-22.722,17.423-17.59-1.483-54.969-8.022-74.647-8.331-25.067-15.613-50.957-1.932-75.306C826.426,90.955,837.4,77.383,846,63.259c4.109-6.746,12.572-17.083,9.044-23.472-5.836-10.542-33.138-14.979-46.385-19.949C766.315,3.943,721.477-.106,676.207,0c-83.614.2-167.66,11.112-249.68,25.9-37.731,6.808-76,14.071-112.39,25.9-20.594,6.692-35.789,19.6-55.449,27.259-63.32,24.665-131.351,37.845-195.76,60.4C44.287,146-25.349,167.741,9.731,193.377c33.963,24.817,83.507,21.867,118.816,45.211,4,2.674,8.942,5.872,11.258,10.191,1.369,2.584-1.042,7.5,0,8.973C150.648,273.739,189.211,276.278,205.878,279.6Z" transform="translate(1387.167 665.696) rotate(180)" fill="rgba(0,0,0,0)" stroke="#c1c8d8" stroke-miterlimit="10" stroke-width="2"/>
        <path id="Shape-37" data-name="Shape" d="M164.744,226.487c67.387,8.818,136.256,11,204.777,11.56,37.453.3,78.605,2.58,115.253-6.468,22.512-5.573,44.251-10.446,67.462-13.959,24.969-3.781,65.173-6.531,80.378-27.021,11.359-15.312,3.573-46.786,3.161-65.4-.441-20.419,3.949-35.561,19.061-50.172,9.5-9.2,53.091-42.6,48.054-52.233-4.793-9.174-35.166-10.581-48.3-12.965C613.085,2.262,571.025-.367,528.805.04,463.417.667,397.785,7.029,333.418,17.959,306.806,22.5,279.3,27.2,253.884,36.282c-17.119,6.119-31.4,16.969-48.4,23.294-48.7,18.143-100.2,30.466-149.069,48.936-15.685,5.94-66.788,21.753-54.536,46.123,10.215,20.347,44.958,26.533,62.03,40.175C92.948,218.067,127.712,221.65,164.744,226.487Z" transform="translate(1260.933 629.915) rotate(180)" fill="rgba(0,0,0,0)" stroke="#c1c8d8" stroke-miterlimit="10" stroke-width="2"/>
        <path id="Shape-38" data-name="Shape" d="M103.158,181.19A1535.423,1535.423,0,0,0,265.552,189.7c35,.08,71.934.535,106.284-6.97,17.255-3.766,32.249-12.577,48.579-18.857,16.815-6.461,40.021-13.672,47.29-28.486,6.829-13.922,4.278-34.233,10.276-51.02,5.334-14.895,16.5-24.1,28.522-34.162,7.66-6.435,47-34.288,42.447-40.44-4.877-6.586-28.5-6.051-40.8-6.961A993.923,993.923,0,0,0,406.325.371c-46.355,1.356-93.066,5.14-138.618,13.707C235.385,20.15,211.018,34.6,180.891,45.207,141.86,58.976,101.427,69.865,62.769,84.928,43.51,92.439,15,102.094,5.133,121.469c-3.793,7.425-7.474,26.31-3.252,33.734,5.073,8.924,23.954,12.708,32.865,15C57.074,175.925,80.439,178.709,103.158,181.19Z" transform="translate(1156.896 596.309) rotate(180)" fill="rgba(0,0,0,0)" stroke="#c1c8d8" stroke-miterlimit="10" stroke-width="2"/>
        <path id="Shape-39" data-name="Shape" d="M85.264,144.164c66.823,7.173,142.323,13.261,209.35-1.174,27.087-5.828,54.062-23.093,65.107-46.62,5.723-12.167,6.954-26.647,15.5-38.438,6.33-8.715,14.382-16.588,22.324-23.922,4.474-4.143,33.137-26.836,27.6-30.889C419.315-1.155,405,.243,395.22.136q-35.2-.318-70.289,2.3c-26.844,1.951-54.323,4.483-80.356,11.333-21,5.559-40.136,17.26-60.586,24.209C130.229,56.373,73.576,70.793,23.1,98.042,12.366,103.834-8.867,112.5,4.033,125.6,20.083,141.9,64.619,141.959,85.264,144.164Z" transform="translate(1088.924 573.533) rotate(180)" fill="rgba(0,0,0,0)" stroke="#c1c8d8" stroke-miterlimit="10" stroke-width="2"/>
        <path id="Shape-40" data-name="Shape" d="M60.284,111.726c47.58,5.022,100.367,7.381,148.138-2.965,24.192-5.236,45.776-16.144,56.309-37.256,7.539-15.049,9.571-31.842,19.875-46.3,3.647-5.1,17.048-19.42,10.443-22.546-14.137-6.722-45.689,1.015-65.3,4.542-29.516,5.343-54.16,20.3-82.226,29.17-43.049,13.6-97.6,20.863-136.829,44.041C-27.115,102.821,46.4,110.256,60.284,111.726Z" transform="translate(1005.695 554.022) rotate(180)" fill="rgba(0,0,0,0)" stroke="#c1c8d8" stroke-miterlimit="10" stroke-width="2"/>
        <path id="Shape-41" data-name="Shape" d="M34.237,77.765c40.367,4.518,112.173,6.749,135.206-29.6,4.274-6.749,16.073-44.008,4.671-47.335-9.4-2.73-24.148,1.778-34.767,5.993-19.752,7.8-38.286,16.3-58.7,22.738-17.378,5.477-35.173,10.529-52.324,16.9C21.048,49.132,7.366,52.371,2.8,58.451-9.492,74.814,21.945,76.4,34.237,77.765Z" transform="translate(925.239 532.343) rotate(180)" fill="#01002d" stroke="#c1c8d8" stroke-width="2"/>
      </g>
    </g>
  </g>
</svg>
